<?xml version="1.0" encoding="utf-8"?>
<!-- Generator: Adobe Illustrator 25.3.1, SVG Export Plug-In . SVG Version: 6.00 Build 0)  -->
<svg version="1.1" id="Layer_1" xmlns="http://www.w3.org/2000/svg" xmlns:xlink="http://www.w3.org/1999/xlink" x="0px" y="0px"
	 width="160px" height="160px" viewBox="0 0 160 160" style="enable-background:new 0 0 160 160;" xml:space="preserve">
<style type="text/css">
	.st0{fill:#365CB3;}
	.st1{fill:#99CCFF;}
</style>
<g>
	<path class="st0" d="M97,50.2c-0.6,1-1,2-1.5,3C84.3,48,72,58,74.7,70c-4.2-1.4-8.5-0.9-12.1,1c-1.2,0.6-2.3,1.4-3.2,2.4H18.5
		C12,73.4,6.3,70.1,2.9,65c-8.4-12.6,1.6-29,16.6-29c0.6-11.4,10-20.4,21.5-20.4c9.1,0,16.9,5.6,20,13.6c10.7-5,22.5,4.5,19.9,16
		c4-1.3,8.1-0.9,11.5,1C94.2,47.2,95.8,48.6,97,50.2z"/>
	<path class="st1" d="M156.6,90.8c-3.5,5.3-9.5,8.8-16.4,8.8H69.8c-11.5,0-18.8-12.3-13.3-22.4c1.4-2.6,3.6-4.7,6.1-6.1
		c3.6-1.9,7.9-2.4,12.1-1C72,58,84.3,48,95.6,53.2C98.9,45,107,39,116.6,39c12.1,0,21.9,9.4,22.6,21.3
		C155,60.3,165.5,77.5,156.6,90.8z"/>
	<g>
		<g>
			<path class="st1" d="M105,130.1c0-1.1,0.9-2,2-2l25.4-0.2c1.1,0,2,0.9,2,2c0,1.1-0.9,2-2,2l-25.4,0.2
				C105.9,132.1,105,131.1,105,130.1z"/>
			<path class="st0" d="M25.6,130.1c0-1.1,0.9-2,2-2l59.4-0.4c1.1,0,2,0.9,2,2c0,1.1-0.9,2-2,2l-59.4,0.4
				C26.5,132.1,25.6,131.4,25.6,130.1z"/>
		</g>
		<g>
			<path class="st1" d="M21.8,142.4c0-1.1,0.9-2,2-2l25.4-0.2c1.1,0,2,0.9,2,2s-0.9,2-2,2l-25.4,0.2
				C22.7,144.4,21.8,143.4,21.8,142.4z"/>
			<path class="st1" d="M112.5,142.4c0-1.1,0.9-2,2-2l21.7-0.1c1.1,0,2,0.9,2,2s-0.9,2-2,2l-21.7,0.1
				C113.5,144.4,112.6,143.4,112.5,142.4z"/>
			<g>
				<path class="st0" d="M67.2,142.4c0-1.1,0.9-2,2-2l25.4-0.2c1.1,0,2,0.9,2,2s-0.9,2-2,2l-25.4,0.2
					C68.1,144.4,67.2,143.4,67.2,142.4z"/>
			</g>
		</g>
		<g>
			<path class="st1" d="M64.6,117.7c0-1.1,0.9-2,2-2l21.7-0.1c1.1,0,2,0.9,2,2s-0.9,2-2,2l-21.7,0.1
				C65.5,119.7,64.6,118.8,64.6,117.7z"/>
			<g>
				<path class="st1" d="M106.2,117.7c0-1.1,0.9-2,2-2l30.5-0.2c1.1,0,2,0.9,2,2s-0.9,2-2,2l-30.5,0.2
					C107.1,119.7,106.2,118.9,106.2,117.7z"/>
			</g>
			<g>
				<path class="st0" d="M19.2,117.7c0-1.1,0.9-2,2-2l25.4-0.2c1.1,0,2,0.9,2,2s-0.9,2-2,2l-25.4,0.2
					C20.1,119.7,19.2,118.8,19.2,117.7z"/>
			</g>
		</g>
	</g>
</g>
</svg>
