<?xml version="1.0" encoding="utf-8"?>
<!-- Generator: Adobe Illustrator 25.3.1, SVG Export Plug-In . SVG Version: 6.00 Build 0)  -->
<svg version="1.1" id="Layer_1" xmlns="http://www.w3.org/2000/svg" xmlns:xlink="http://www.w3.org/1999/xlink" x="0px" y="0px"
	 width="160px" height="160px" viewBox="0 0 160 160" style="enable-background:new 0 0 160 160;" xml:space="preserve">
<style type="text/css">
	.st0{fill:#99CCFF;}
</style>
<g>
	<circle class="st0" cx="80" cy="80" r="13.6"/>
	<g>
		<path class="st0" d="M80,68.1c-1,0-1.7-0.8-1.7-1.7V39c0-1,0.8-1.7,1.7-1.7s1.7,0.8,1.7,1.7v27.3C81.7,67.3,81,68.1,80,68.1z"/>
		<path class="st0" d="M100.4,11.8c-0.5-0.8-1.5-1.1-2.4-0.6l-16.3,9.4V1.7C81.7,0.8,81,0,80,0s-1.7,0.8-1.7,1.7v18.8l-16.3-9.4
			c-0.8-0.5-1.9-0.2-2.4,0.6c-0.5,0.8-0.2,1.9,0.6,2.4l18.1,10.4V36l-11.6-6.7c-0.8-0.5-1.9-0.2-2.4,0.6c-0.5,0.8-0.2,1.9,0.6,2.4
			c0.3,0.2,14,8.1,14.3,8.2c0.5,0.3,1.1,0.3,1.6,0c0.3-0.2,14-8.1,14.3-8.2c0.8-0.5,1.1-1.5,0.6-2.4c-0.5-0.8-1.5-1.1-2.4-0.6
			L81.7,36V24.6l18.1-10.4C100.6,13.7,100.9,12.6,100.4,11.8z"/>
	</g>
	<g>
		<path class="st0" d="M67.3,74.7L43.7,61c-0.8-0.5-1.1-1.5-0.6-2.4c0.5-0.8,1.5-1.1,2.4-0.6l23.7,13.7c0.8,0.5,1.1,1.5,0.6,2.4
			C69.2,74.9,68.2,75.2,67.3,74.7z"/>
		<path class="st0" d="M46.3,43.1c0-1-0.8-1.7-1.7-1.7s-1.7,0.8-1.7,1.7v13.4l-9.9-5.7V29.9c0-1-0.8-1.7-1.7-1.7
			c-1,0-1.7,0.8-1.7,1.7v18.8l-16.3-9.4c-0.8-0.5-1.9-0.2-2.4,0.6c-0.5,0.8-0.2,1.9,0.6,2.4l16.3,9.4l-16.3,9.4
			c-0.8,0.5-1.1,1.5-0.6,2.4c0.5,0.8,1.5,1.1,2.4,0.6l18.1-10.4l9.9,5.7l-11.6,6.7c-0.8,0.5-1.1,1.5-0.6,2.4
			c0.5,0.8,1.5,1.1,2.4,0.6c0.3-0.2,14.3-8.2,14.6-8.5c0.1-0.1,0.3-0.3,0.3-0.4c0.1-0.2,0.1-0.3,0.2-0.5
			C46.3,59.6,46.3,43.5,46.3,43.1z"/>
	</g>
	<g>
		<path class="st0" d="M43,101.4c-0.5-0.8-0.2-1.9,0.6-2.4l23.7-13.7c0.8-0.5,1.9-0.2,2.4,0.6c0.5,0.8,0.2,1.9-0.6,2.4L45.4,102
			C44.6,102.5,43.5,102.2,43,101.4z"/>
		<path class="st0" d="M45.4,99l-14.2-8.2c-0.8-0.5-1.9-0.2-2.4,0.6c-0.5,0.8-0.2,1.9,0.6,2.4l11.6,6.7l-9.9,5.7L13.1,95.8
			c-0.8-0.5-1.9-0.2-2.4,0.6c-0.5,0.8-0.2,1.9,0.6,2.4l16.3,9.4l-16.3,9.4c-1.5,0.9-0.9,3.2,0.9,3.2c0.8,0-0.1,0.3,17.2-9.7v18.8
			c0,1,0.8,1.7,1.7,1.7c1,0,1.7-0.8,1.7-1.7v-20.8l9.9-5.7v13.4c0,1,0.8,1.7,1.7,1.7s1.7-0.8,1.7-1.7v-16.4
			C46.3,99.9,45.9,99.3,45.4,99z"/>
	</g>
	<g>
		<path class="st0" d="M80,122.7c-1,0-1.7-0.8-1.7-1.7V93.6c0-1,0.8-1.7,1.7-1.7s1.7,0.8,1.7,1.7V121C81.7,121.9,81,122.7,80,122.7z
			"/>
		<path class="st0" d="M99.8,145.8l-18.1-10.4V124l11.6,6.7c0.3,0.2,0.6,0.2,0.9,0.2c1.8,0,2.4-2.4,0.9-3.2
			c-0.3-0.2-14-8.1-14.3-8.2c-0.6-0.3-1.2-0.3-1.7,0l-14.2,8.2c-0.8,0.5-1.1,1.5-0.6,2.4c0.5,0.8,1.5,1.1,2.4,0.6l11.6-6.7v11.4
			l-18.1,10.4c-0.8,0.5-1.1,1.5-0.6,2.4c0.5,0.8,1.5,1.1,2.4,0.6l16.3-9.4v18.8c0,1,0.8,1.7,1.7,1.7s1.7-0.8,1.7-1.7v-18.8l16.3,9.4
			c0.8,0.5,1.9,0.2,2.4-0.6C100.9,147.4,100.6,146.3,99.8,145.8z"/>
	</g>
	<g>
		<path class="st0" d="M114.6,102L90.9,88.3c-0.8-0.5-1.1-1.5-0.6-2.4c0.5-0.8,1.5-1.1,2.4-0.6L116.3,99c0.8,0.5,1.1,1.5,0.6,2.4
			C116.5,102.2,115.4,102.5,114.6,102z"/>
		<path class="st0" d="M148.6,117.6l-16.3-9.4l16.3-9.4c0.8-0.5,1.1-1.5,0.6-2.4c-0.5-0.8-1.5-1.1-2.4-0.6l-18.1,10.4l-9.9-5.7
			l11.6-6.7c0.8-0.5,1.1-1.5,0.6-2.4c-0.5-0.8-1.5-1.1-2.4-0.6L114.6,99c-0.2,0.1-0.5,0.4-0.6,0.6c-0.4,0.7-0.2,0.2-0.2,17.3
			c0,1,0.8,1.7,1.7,1.7s1.7-0.8,1.7-1.7v-13.4l9.9,5.7v20.8c0,1,0.8,1.7,1.7,1.7s1.7-0.8,1.7-1.7v-18.8l16.3,9.4
			c0.8,0.5,1.9,0.2,2.4-0.6C149.8,119.2,149.5,118.1,148.6,117.6z"/>
	</g>
	<g>
		<path class="st0" d="M90.3,74.1c-0.5-0.8-0.2-1.9,0.6-2.4L114.6,58c0.8-0.5,1.9-0.2,2.4,0.6c0.5,0.8,0.2,1.9-0.6,2.4L92.7,74.7
			C91.8,75.2,90.8,74.9,90.3,74.1z"/>
		<path class="st0" d="M148.6,61.2l-16.3-9.4l16.3-9.4c0.8-0.5,1.1-1.5,0.6-2.4c-0.5-0.8-1.5-1.1-2.4-0.6l-16.3,9.4V29.9
			c0-1-0.8-1.7-1.7-1.7s-1.7,0.8-1.7,1.7v20.8l-9.9,5.7V43.1c0-1-0.8-1.7-1.7-1.7s-1.7,0.8-1.7,1.7c0,16.9-0.1,16.7,0.2,17.3
			c0.4,0.7,0.4,0.5,14.9,8.9c0.8,0.5,1.9,0.2,2.4-0.6c0.5-0.8,0.2-1.9-0.6-2.4L119,59.5l9.9-5.7l18.1,10.4c0.8,0.5,1.9,0.2,2.4-0.6
			C149.8,62.8,149.5,61.7,148.6,61.2z"/>
	</g>
</g>
</svg>
