<?xml version="1.0" encoding="utf-8"?>
<!-- Generator: Adobe Illustrator 25.3.1, SVG Export Plug-In . SVG Version: 6.00 Build 0)  -->
<svg version="1.1" id="Layer_1" xmlns="http://www.w3.org/2000/svg" xmlns:xlink="http://www.w3.org/1999/xlink" x="0px" y="0px"
	 width="160px" height="160px" viewBox="0 0 160 160" style="enable-background:new 0 0 160 160;" xml:space="preserve">
<style type="text/css">
	.st0{fill:#7988B2;}
</style>
<g>
	<circle class="st0" cx="80" cy="80.1" r="13.6"/>
	<g>
		<path class="st0" d="M80,68.2c-1,0-1.7-0.8-1.7-1.7V39.1c0-1,0.8-1.7,1.7-1.7s1.7,0.8,1.7,1.7v27.3C81.7,67.4,81,68.2,80,68.2z"/>
		<path class="st0" d="M100.4,11.9c-0.5-0.8-1.5-1.1-2.4-0.6l-16.3,9.4V1.8c0-0.9-0.7-1.7-1.7-1.7s-1.7,0.8-1.7,1.7v18.8L62,11.2
			c-0.8-0.5-1.9-0.2-2.4,0.6s-0.2,1.9,0.6,2.4l18.1,10.4v11.5l-11.6-6.7c-0.8-0.5-1.9-0.2-2.4,0.6c-0.5,0.8-0.2,1.9,0.6,2.4
			c0.3,0.2,14,8.1,14.3,8.2c0.5,0.3,1.1,0.3,1.6,0c0.3-0.2,14-8.1,14.3-8.2c0.8-0.5,1.1-1.5,0.6-2.4c-0.5-0.8-1.5-1.1-2.4-0.6
			l-11.6,6.7V24.7l18.1-10.4C100.6,13.8,100.9,12.7,100.4,11.9z"/>
	</g>
	<g>
		<path class="st0" d="M67.3,74.8L43.7,61.1c-0.8-0.5-1.1-1.5-0.6-2.4c0.5-0.8,1.5-1.1,2.4-0.6l23.7,13.7c0.8,0.5,1.1,1.5,0.6,2.4
			C69.2,75,68.2,75.2,67.3,74.8z"/>
		<path class="st0" d="M46.3,43.2c0-1-0.8-1.7-1.7-1.7s-1.7,0.8-1.7,1.7v13.4L33,50.9V30c0-1-0.8-1.7-1.7-1.7c-1,0-1.7,0.8-1.7,1.7
			v18.8l-16.3-9.4c-0.8-0.5-1.9-0.2-2.4,0.6s-0.2,1.9,0.6,2.4l16.3,9.4l-16.3,9.4c-0.8,0.5-1.1,1.5-0.6,2.4c0.5,0.8,1.5,1.1,2.4,0.6
			l18.1-10.4l9.9,5.7l-11.6,6.7c-0.8,0.5-1.1,1.5-0.6,2.4c0.5,0.8,1.5,1.1,2.4,0.6c0.3-0.2,14.3-8.2,14.6-8.5
			c0.1-0.1,0.3-0.3,0.3-0.4c0.1-0.2,0.1-0.3,0.2-0.5C46.3,59.7,46.3,43.6,46.3,43.2z"/>
	</g>
	<g>
		<path class="st0" d="M43,101.5c-0.5-0.8-0.2-1.9,0.6-2.4l23.7-13.7c0.8-0.5,1.9-0.2,2.4,0.6c0.5,0.8,0.2,1.9-0.6,2.4l-23.7,13.7
			C44.6,102.6,43.5,102.2,43,101.5z"/>
		<path class="st0" d="M45.4,99.1l-14.2-8.2c-0.8-0.5-1.9-0.2-2.4,0.6c-0.5,0.8-0.2,1.9,0.6,2.4l11.6,6.7l-9.9,5.7l-18-10.4
			c-0.8-0.5-1.9-0.2-2.4,0.6c-0.5,0.8-0.2,1.9,0.6,2.4l16.3,9.4l-16.3,9.4c-1.5,0.9-0.9,3.2,0.9,3.2c0.8,0-0.1,0.3,17.2-9.7V130
			c0,1,0.8,1.7,1.7,1.7c1,0,1.7-0.8,1.7-1.7v-20.8l9.9-5.7v13.4c0,1,0.8,1.7,1.7,1.7s1.7-0.8,1.7-1.7v-16.4
			C46.3,100,45.9,99.4,45.4,99.1z"/>
	</g>
	<g>
		<path class="st0" d="M80,122.8c-1,0-1.7-0.8-1.7-1.7V93.7c0-1,0.8-1.7,1.7-1.7s1.7,0.8,1.7,1.7v27.4C81.7,122,81,122.8,80,122.8z"
			/>
		<path class="st0" d="M99.8,145.9l-18.1-10.4v-11.4l11.6,6.7c0.3,0.2,0.6,0.2,0.9,0.2c1.8,0,2.4-2.4,0.9-3.2
			c-0.3-0.2-14-8.1-14.3-8.2c-0.6-0.3-1.2-0.3-1.7,0l-14.2,8.2c-0.8,0.5-1.1,1.5-0.6,2.4c0.5,0.8,1.5,1.1,2.4,0.6l11.6-6.7v11.4
			l-18.1,10.4c-0.8,0.5-1.1,1.5-0.6,2.4c0.5,0.8,1.5,1.1,2.4,0.6l16.3-9.4v18.8c0,1,0.8,1.7,1.7,1.7s1.7-0.8,1.7-1.7v-18.8l16.3,9.4
			c0.8,0.5,1.9,0.2,2.4-0.6C100.9,147.4,100.6,146.4,99.8,145.9z"/>
	</g>
	<g>
		<path class="st0" d="M114.6,102.1L90.9,88.4c-0.8-0.5-1.1-1.5-0.6-2.4c0.5-0.8,1.5-1.1,2.4-0.6l23.6,13.7c0.8,0.5,1.1,1.5,0.6,2.4
			C116.5,102.2,115.4,102.6,114.6,102.1z"/>
		<path class="st0" d="M148.6,117.7l-16.3-9.4l16.3-9.4c0.8-0.5,1.1-1.5,0.6-2.4c-0.5-0.8-1.5-1.1-2.4-0.6l-18.1,10.4l-9.9-5.7
			l11.6-6.7c0.8-0.5,1.1-1.5,0.6-2.4c-0.5-0.8-1.5-1.1-2.4-0.6l-14,8.2c-0.2,0.1-0.5,0.4-0.6,0.6c-0.4,0.7-0.2,0.2-0.2,17.3
			c0,1,0.8,1.7,1.7,1.7s1.7-0.8,1.7-1.7v-13.4l9.9,5.7V130c0,1,0.8,1.7,1.7,1.7c0.9,0,1.7-0.8,1.7-1.7v-18.8l16.3,9.4
			c0.8,0.5,1.9,0.2,2.4-0.6C149.8,119.2,149.5,118.2,148.6,117.7z"/>
	</g>
	<g>
		<path class="st0" d="M90.3,74.2c-0.5-0.8-0.2-1.9,0.6-2.4l23.7-13.7c0.8-0.5,1.9-0.2,2.4,0.6s0.2,1.9-0.6,2.4L92.7,74.8
			C91.8,75.2,90.8,75,90.3,74.2z"/>
		<path class="st0" d="M148.6,61.3l-16.3-9.4l16.3-9.4c0.8-0.5,1.1-1.5,0.6-2.4c-0.5-0.8-1.5-1.1-2.4-0.6l-16.3,9.4V30
			c0-1-0.8-1.7-1.7-1.7s-1.7,0.8-1.7,1.7v20.8l-9.9,5.7V43.2c0-1-0.8-1.7-1.7-1.7s-1.7,0.8-1.7,1.7c0,16.9-0.1,16.7,0.2,17.3
			c0.4,0.7,0.4,0.5,14.9,8.9c0.8,0.5,1.9,0.2,2.4-0.6c0.5-0.8,0.2-1.9-0.6-2.4L119,59.6l9.9-5.7L147,64.2c0.8,0.5,1.9,0.2,2.4-0.6
			C149.8,62.9,149.5,61.8,148.6,61.3z"/>
	</g>
</g>
</svg>
